<svg width="24" height="24" viewBox="0 0 24 24" fill="none" xmlns="http://www.w3.org/2000/svg">
<path d="M21 6.00016H16V4.33016C15.9765 3.68998 15.7002 3.08522 15.2315 2.64845C14.7629 2.21168 14.1402 1.97855 13.5 2.00016H10.5C9.85973 1.97855 9.23703 2.21168 8.7684 2.64845C8.29977 3.08522 8.02343 3.68998 7.99997 4.33016V6.00016H2.99997C2.73475 6.00016 2.4804 6.10552 2.29286 6.29305C2.10533 6.48059 1.99997 6.73494 1.99997 7.00016C1.99997 7.26538 2.10533 7.51973 2.29286 7.70726C2.4804 7.8948 2.73475 8.00016 2.99997 8.00016H3.99997V19.0002C3.99997 19.7958 4.31604 20.5589 4.87865 21.1215C5.44126 21.6841 6.20432 22.0002 6.99997 22.0002H17C17.7956 22.0002 18.5587 21.6841 19.1213 21.1215C19.6839 20.5589 20 19.7958 20 19.0002V8.00016H21C21.2652 8.00016 21.5195 7.8948 21.7071 7.70726C21.8946 7.51973 22 7.26538 22 7.00016C22 6.73494 21.8946 6.48059 21.7071 6.29305C21.5195 6.10552 21.2652 6.00016 21 6.00016ZM9.99997 16.0002C9.99997 16.2654 9.89461 16.5197 9.70708 16.7073C9.51954 16.8948 9.26519 17.0002 8.99997 17.0002C8.73475 17.0002 8.4804 16.8948 8.29286 16.7073C8.10533 16.5197 7.99997 16.2654 7.99997 16.0002V12.0002C7.99997 11.7349 8.10533 11.4806 8.29286 11.2931C8.4804 11.1055 8.73475 11.0002 8.99997 11.0002C9.26519 11.0002 9.51954 11.1055 9.70708 11.2931C9.89461 11.4806 9.99997 11.7349 9.99997 12.0002V16.0002ZM9.99997 4.33016C9.99997 4.17016 10.21 4.00016 10.5 4.00016H13.5C13.79 4.00016 14 4.17016 14 4.33016V6.00016H9.99997V4.33016ZM16 16.0002C16 16.2654 15.8946 16.5197 15.7071 16.7073C15.5195 16.8948 15.2652 17.0002 15 17.0002C14.7348 17.0002 14.4804 16.8948 14.2929 16.7073C14.1053 16.5197 14 16.2654 14 16.0002V12.0002C14 11.7349 14.1053 11.4806 14.2929 11.2931C14.4804 11.1055 14.7348 11.0002 15 11.0002C15.2652 11.0002 15.5195 11.1055 15.7071 11.2931C15.8946 11.4806 16 11.7349 16 12.0002V16.0002Z" fill="white"/>
</svg>
